<?xml version="1.0" encoding="utf-8"?>
<!-- Generator: Adobe Illustrator 19.0.0, SVG Export Plug-In . SVG Version: 6.00 Build 0)  -->
<svg version="1.1" id="Camada_1" xmlns="http://www.w3.org/2000/svg" xmlns:xlink="http://www.w3.org/1999/xlink" x="0px" y="0px"
	 viewBox="-307 107.6 344.1 326.4" style="enable-background:new -307 107.6 344.1 326.4;" xml:space="preserve">
<style type="text/css">
	.st0{display:none;}
	.st1{fill:#F21E14;}
	.st2{fill:#27C111;}
</style>
<g id="Camada_1_1_" class="st0">
	
		<image style="display:inline;overflow:visible;enable-background:new    ;" width="401" height="362" id="XMLID_2_" xlink:href="EA9339D.jpeg"  transform="matrix(0.9975 0 0 0.9972 -327.3704 101.1828)">
	</image>
</g>
<g id="Camada_2">
	<path id="XMLID_3_" class="st1" d="M-65.7,153.2c14.5,1.8,21.4,7.1,32.7,11.8c68.5,28.7,70,113.9,70,113.9
		c-14.2,160.9-187,155-187,155c-107.5-2.5-181.7-123-149.5-201c41.3-100.1,106.5-78.5,111.5-83s16-10,16-10s41.6-8.3,54.3-6.2
		C-97.2,137.1-81.2,147.6-65.7,153.2z"/>
</g>
<g id="Camada_3">
	<path id="XMLID_10_" class="st2" d="M-35.3,118.4c-49.6,0-83.3,53.7-83.3,53.7l-12.6,1.4c-9.6-31.1-35.5-48.5-50.1-57.3
		c-23.7-14.4-37.6-6.2-37.6-6.2c43.7,1.7,59.4,63.6,61.7,74l-2.5,1h-2.8l0.1,0.4c-3.5-1.2-40.8-13.5-101.5,37.6
		c0,0,24.6-15.6,53.7-19.9c26-3.9,56.7,3.2,62.5,9.7c0,0-16.2,20.8,0,41.7c0,0,9.7,4.6,13.5-24.6l26.5-9.7c2.8,3.7,5.7,8.3,8.6,13.9
		c0,0,17.1-16.2,29.6-20.4c0,0,5.6-12.5,1.8-16.2c0,0-7.5-14.2-19.6-7.4C-81.3,160.4-65.7,135.7-35.3,118.4z"/>
</g>
</svg>
